<svg width="271" height="57" viewBox="0 0 271 57" fill="none" xmlns="http://www.w3.org/2000/svg">
<path d="M79.4035 28.1287H62.6653C60.5201 28.1287 58.798 26.4065 58.798 24.2614C58.798 22.1162 60.5201 20.3941 62.6653 20.3941H79.4035C81.5487 20.3941 83.2708 22.1162 83.2708 24.2614C83.301 26.4065 81.5487 28.1287 79.4035 28.1287Z" fill="#00A19A"></path>
<path d="M83.7239 48.5831H66.9857C64.8406 48.5831 63.1184 46.861 63.1184 44.7158C63.1184 42.5707 64.8406 40.8485 66.9857 40.8485H83.7239C85.8691 40.8485 87.5913 42.5707 87.5913 44.7158C87.5913 46.861 85.8691 48.5831 83.7239 48.5831Z" fill="#00A19A"></path>
<path d="M75.0225 0.18128H60.6711C52.725 0.18128 46.5312 6.28439 45.0508 14.7139C44.7789 16.285 42.4222 28.9142 41.2741 34.685L31.6965 6.19375C31.213 4.5018 29.5211 3.23283 27.6781 3.23283C25.2006 3.23283 23.7201 4.5018 22.9648 7.10015C19.0975 19.8804 16.4689 28.6725 14.0216 35.3195C12.5412 26.8597 9.30833 10.3632 7.8883 3.08177C7.40488 0.845975 6.25677 0 3.93034 0C1.39241 0 -0.359961 1.84302 0.0630264 4.2903C2.32903 16.134 4.77632 28.1287 7.19339 39.7004C8.31129 45.2597 8.82491 48.3112 13.0548 48.5227C15.7438 48.5832 17.2847 46.2567 17.9796 44.2324C21.726 33.2347 24.687 24.8354 27.5572 15.3182C29.9441 22.5694 33.8416 33.2952 37.4974 44.2324C38.1319 46.2869 39.129 48.5227 42.2107 48.5227C45.5342 48.4623 46.1687 46.6193 46.8032 44.0814C46.8032 44.0814 51.9092 18.5812 52.4531 16.3455C53.3293 12.8709 54.8097 7.94613 60.6107 7.94613H75.0225C77.1676 7.94613 78.8898 6.22396 78.8898 4.07881C78.8898 1.93366 77.1374 0.18128 75.0225 0.18128Z" fill="#00A19A"></path>
<path d="M102.819 45.0482C102.819 47.4653 100.855 49.4291 98.4378 49.4291C96.0208 49.4291 94.0569 47.4653 94.0569 45.0482C94.0569 42.6311 96.0208 40.6672 98.4378 40.6672C100.825 40.637 102.819 42.6009 102.819 45.0482Z" fill="#00A19A"></path>
<path d="M120.819 9.5062C120.819 8.6197 121.952 8.07796 122.789 8.07796C123.626 8.07796 124.069 8.42271 124.266 9.2107C124.463 9.8017 125.941 16.0072 126.729 18.6174C127.763 15.8594 128.847 12.7567 130.078 9.35845C130.373 8.66895 131.014 8.32421 131.851 8.32421C132.885 8.32421 133.378 8.8167 133.722 9.7032L137.022 18.5682L138.795 11.8209C139.041 10.8852 139.238 10.0479 139.484 9.35845C139.731 8.66895 140.125 8.32421 140.962 8.32421C141.848 8.32421 142.883 8.9152 142.932 9.75245C142.932 9.90019 142.883 10.1464 142.833 10.3434C142.439 11.5254 140.962 16.4997 140.174 18.8636C139.731 20.2426 139.484 21.0799 139.189 21.6709C138.894 22.5574 138.401 23.0499 137.17 23.0499C136.037 23.0499 135.495 22.5574 135.151 21.5724C134.215 19.4546 132.737 15.0714 131.851 12.8059L128.896 20.6366C128.305 22.2619 127.862 23.0991 126.384 23.0991C124.956 23.0991 124.562 22.4096 124.217 21.3261C122.444 15.6132 121.41 11.7224 120.868 9.9002C120.868 9.8017 120.819 9.55545 120.819 9.5062Z" fill="#00A19A"></path>
<path d="M152.339 8.17641C156.427 8.76741 158.249 12.2641 158.249 15.5639C158.249 19.9471 154.949 23.1483 150.467 23.1483C146.626 23.1483 143.228 20.2918 143.228 16.0071C143.228 11.2299 146.33 8.02867 151.354 7.97942C151.748 7.97942 152.043 7.97941 152.339 8.17641ZM150.763 11.0329C148.35 11.1806 146.724 13.0029 146.724 16.0071C146.724 18.4204 148.596 20.0456 150.418 20.0456C152.684 20.0456 154.752 18.2726 154.752 15.4161C154.752 13.1014 153.324 11.1806 150.763 11.0329Z" fill="#00A19A"></path>
<path d="M159.923 9.65387C159.923 8.61963 160.563 8.07788 161.696 8.07788C162.583 8.07788 163.124 8.57038 163.223 9.40762L163.272 10.5404C164.06 8.86588 166.03 8.02863 167.606 8.02863C169.773 8.02863 171.3 9.25987 171.94 10.8359C172.827 9.25987 174.6 8.07788 176.717 8.02863C180.608 7.97938 182.135 10.6881 182.135 14.2341V17.4353C182.135 18.7651 182.086 20.0456 182.086 21.6216C182.036 22.7543 181.051 23.0006 180.313 23.0006C179.328 23.0006 178.589 22.5081 178.589 21.5723C178.638 19.8978 178.737 17.3861 178.737 14.7266C178.737 12.6089 178.096 11.0329 176.126 11.0329C174.304 11.0329 172.974 12.2641 172.925 14.4803C172.876 15.7116 172.876 16.3518 172.876 17.8786V21.1783C172.827 22.3111 172.236 22.9513 171.004 22.9513C170.069 22.9021 169.379 22.4588 169.379 21.4738C169.428 18.6666 169.478 17.7308 169.428 14.3326C169.379 12.5104 168.542 10.9344 166.72 10.9344C164.257 10.9344 163.321 12.9044 163.321 15.6131L163.371 21.5231C163.321 22.5081 162.533 22.902 161.548 22.902C160.711 22.902 159.874 22.5081 159.874 21.4246C159.874 20.9321 159.825 20.6858 159.874 19.7008L159.972 14.9236C160.022 10.8359 159.923 10.2449 159.923 9.65387Z" fill="#00A19A"></path>
<path d="M191.048 19.9965C192.23 19.9965 193.363 19.6025 194.151 19.1592C194.545 18.913 194.939 18.7652 195.382 18.7652C196.17 18.7652 196.86 19.5532 196.86 20.4397C196.86 21.0307 196.466 21.5232 195.924 21.9172C194.742 22.7052 193.215 23.1977 190.802 23.1977C186.862 23.1977 183.71 20.0457 183.661 16.155C183.661 11.6733 186.862 8.07805 190.999 8.07805C194.742 8.07805 197.451 11.033 197.451 13.9388C197.451 15.6133 197.205 16.4505 194.939 16.4505C193.166 16.4998 190.999 16.4997 187.158 16.4997C187.256 18.3712 188.881 19.9965 191.048 19.9965ZM187.207 14.2343C188.881 14.2343 192.378 14.185 193.708 14.0865C193.954 14.0373 194.102 13.9388 194.102 13.791C194.102 12.018 192.624 10.836 191.048 10.836C188.881 10.836 187.355 12.5598 187.207 14.2343Z" fill="#00A19A"></path>
<path d="M199.126 10.1465C199.077 8.81679 199.52 8.12729 200.899 8.12729C201.983 8.12729 202.377 8.6198 202.475 9.70329L202.525 10.836C203.263 9.06304 205.282 8.07805 207.302 8.07805C210.848 8.07805 212.818 10.3928 212.818 14.382C212.818 15.7118 212.768 16.352 212.768 18.519V21.277C212.768 22.5575 212.079 23.05 210.897 23.05C209.961 23.05 209.222 22.5575 209.222 21.5232C209.222 19.701 209.321 17.3862 209.321 15.4163C209.272 13.2493 208.828 11.1808 206.415 11.1808C203.116 11.1315 202.574 13.6433 202.574 16.5983L202.623 21.6217C202.623 22.7545 201.687 23.0992 200.85 23.0992C199.865 23.0992 199.077 22.7545 199.077 21.5725C199.077 19.6517 199.176 17.731 199.126 13.0523V10.1465Z" fill="#00A19A"></path>
<path d="M128.206 46.0774C129.388 46.0774 130.521 45.6834 131.309 45.2401C131.703 44.9939 132.097 44.8461 132.54 44.8461C133.328 44.8461 134.018 45.6341 134.018 46.5206C134.018 47.1116 133.624 47.6041 133.082 47.9981C131.9 48.7861 130.423 49.2786 127.96 49.2786C124.02 49.2786 120.868 46.1266 120.819 42.2359C120.819 37.7542 124.02 34.159 128.157 34.159C131.9 34.159 134.609 37.1139 134.609 40.0197C134.609 41.6942 134.363 42.5314 132.097 42.5314C130.324 42.5807 128.157 42.5807 124.316 42.5807C124.463 44.4521 126.039 46.0774 128.206 46.0774ZM124.365 40.3152C126.039 40.3152 129.536 40.2659 130.866 40.1674C131.112 40.1182 131.26 40.0197 131.26 39.8719C131.26 38.0989 129.782 36.9169 128.206 36.9169C126.039 36.9169 124.513 38.6407 124.365 40.3152Z" fill="#00A19A"></path>
<path d="M138.549 43.2701L139.977 41.5957L139.435 41.0047C138.401 39.8719 136.924 38.2467 135.939 37.0647C135.545 36.5722 135.348 36.2274 135.348 35.7842C135.348 34.9962 136.283 34.3067 137.071 34.3067C137.613 34.2574 138.106 34.5529 138.5 35.0454C140.47 37.5079 141.356 38.5422 141.996 39.3794C142.686 38.5914 143.769 37.1632 145.197 35.3409C145.887 34.5529 146.281 34.2574 146.872 34.2574C147.709 34.2574 148.694 34.9962 148.694 35.8827C148.694 36.7692 147.906 37.3602 146.921 38.4929L144.114 41.6942L148.103 46.1759C148.497 46.6191 148.842 46.9639 148.842 47.6041C148.842 48.3921 147.955 49.1801 147.069 49.1801C146.379 49.1801 145.936 48.7861 145.493 48.1951C144.705 47.2594 142.883 44.9446 142.095 43.9596C140.617 45.7326 139.485 47.1609 138.697 48.1951C138.204 48.8846 137.761 49.1309 137.121 49.1309C136.234 49.1309 135.348 48.3429 135.348 47.5549C135.348 47.0624 135.495 46.7176 135.84 46.3236L138.549 43.2701Z" fill="#00A19A"></path>
<path d="M152.043 34.1097C152.88 34.1097 153.422 34.4544 153.57 35.2424L153.668 36.7199C154.604 35.0454 156.476 34.0604 158.544 34.0604C162.73 34.0604 165.291 37.3109 165.291 41.4479C165.291 45.7819 162.189 49.1801 157.904 49.1801C156.131 49.1801 154.604 48.4906 153.718 47.2101C153.718 47.8996 153.767 49.0816 153.767 50.1651C153.767 51.2486 153.816 52.7753 153.816 54.3021C153.816 55.4348 153.225 56.0258 151.846 55.9766C150.812 55.9766 150.27 55.4348 150.27 54.3021L150.319 41.7434L150.27 35.5872C150.319 34.5529 151.058 34.1097 152.043 34.1097ZM157.855 37.1632C155.589 37.1632 153.668 39.0346 153.668 41.7434C153.668 44.5999 155.244 46.1759 157.608 46.1759C159.923 46.1759 161.745 44.2059 161.745 41.4479C161.795 38.8869 159.972 37.1632 157.855 37.1632Z" fill="#00A19A"></path>
<path d="M173.566 46.0775C174.748 46.0775 175.881 45.6835 176.669 45.2402C177.063 44.994 177.457 44.8462 177.9 44.8462C178.688 44.8462 179.377 45.6342 179.377 46.5207C179.377 47.1117 178.983 47.6042 178.442 47.9982C177.26 48.7862 175.782 49.2787 173.32 49.2787C169.38 49.2787 166.228 46.1267 166.179 42.236C166.179 37.7543 169.38 34.159 173.517 34.159C177.26 34.159 179.968 37.114 179.968 40.0197C179.968 41.6942 179.722 42.5315 177.457 42.5315C175.684 42.5807 173.517 42.5807 169.675 42.5807C169.774 44.4522 171.399 46.0775 173.566 46.0775ZM169.675 40.3152C171.35 40.3152 174.846 40.266 176.176 40.1675C176.422 40.1182 176.57 40.0197 176.57 39.872C176.57 38.099 175.093 36.917 173.517 36.917C171.399 36.917 169.872 38.6408 169.675 40.3152Z" fill="#00A19A"></path>
<path d="M183.464 34.2082C184.203 34.2082 184.695 34.6022 184.794 35.3409L184.942 37.1139C185.877 35.0947 187.7 34.0604 189.276 34.0604C190.408 34.0604 190.95 34.5529 190.95 35.7349C190.95 36.5721 190.556 37.4094 189.522 37.4094H188.98C186.862 37.4094 185.139 39.2809 185.139 42.4329C185.139 44.0089 185.188 45.7818 185.188 47.5548C185.139 48.5891 184.4 49.0323 183.415 49.0323C182.331 49.0323 181.691 48.5891 181.74 47.0623C181.79 44.5998 181.839 41.4971 181.839 39.1824C181.839 38.0989 181.79 36.9169 181.79 35.7842C181.691 34.7499 182.381 34.2082 183.464 34.2082Z" fill="#00A19A"></path>
<path d="M193.413 34.159C194.447 34.159 195.235 34.5529 195.235 36.1289C195.284 38.5422 195.186 41.0047 195.235 43.3687V47.3579C195.284 48.5399 194.595 49.0816 193.462 49.0816C192.477 49.0816 191.738 48.5891 191.738 47.6041V35.7842C191.788 34.6022 192.674 34.159 193.413 34.159Z" fill="#00A19A"></path>
<path d="M204.543 46.0775C205.725 46.0775 206.858 45.6835 207.646 45.2402C208.04 44.994 208.434 44.8462 208.877 44.8462C209.665 44.8462 210.355 45.6342 210.355 46.5207C210.355 47.1117 209.961 47.6042 209.37 47.9982C208.188 48.7862 206.71 49.2787 204.248 49.2787C200.308 49.2787 197.156 46.1267 197.107 42.236C197.107 37.7543 200.308 34.159 204.445 34.159C208.188 34.159 210.896 37.114 210.896 40.0197C210.896 41.6942 210.65 42.5315 208.385 42.5315C206.612 42.5807 204.445 42.5807 200.603 42.5807C200.751 44.4522 202.376 46.0775 204.543 46.0775ZM200.653 40.3152C202.327 40.3152 205.824 40.266 207.154 40.1675C207.4 40.1182 207.548 40.0197 207.548 39.872C207.548 38.099 206.07 36.917 204.494 36.917C202.376 36.917 200.85 38.6408 200.653 40.3152Z" fill="#00A19A"></path>
<path d="M212.62 36.2275C212.571 34.8978 213.014 34.2083 214.393 34.2083C215.476 34.2083 215.87 34.7008 215.969 35.7843L216.018 36.917C216.757 35.144 218.776 34.159 220.795 34.159C224.341 34.159 226.311 36.4738 226.311 40.463C226.311 41.7927 226.262 42.433 226.262 44.6V47.358C226.262 48.6385 225.573 49.1309 224.391 49.1309C223.455 49.1309 222.716 48.6385 222.716 47.6042C222.716 45.782 222.815 43.4672 222.815 41.4972C222.765 39.3302 222.322 37.2618 219.909 37.2618C216.609 37.2125 216.067 39.7242 216.067 42.6792L216.117 47.7027C216.117 48.8354 215.181 49.1802 214.344 49.1802C213.359 49.1802 212.571 48.8354 212.571 47.6535C212.571 45.7327 212.669 43.812 212.62 39.1332V36.2275Z" fill="#00A19A"></path>
<path d="M239.856 36.3751C239.856 37.1139 239.314 38.0496 238.427 38.0496C237.935 38.0496 237.393 37.7541 237.048 37.6064C236.556 37.3601 235.965 37.2616 235.177 37.2616C232.764 37.2616 231.237 39.7734 231.237 41.8419C231.237 44.2551 232.862 46.0773 235.078 46.0773C236.211 46.0773 236.851 45.7818 237.492 45.4371C237.886 45.2401 238.28 44.9446 238.772 44.9446C239.56 44.9446 240.2 45.8803 240.2 46.7176C240.2 47.1608 239.954 47.6041 239.609 47.8503C238.624 48.6383 237.295 49.2293 235.128 49.2293C230.153 49.2293 227.789 45.3386 227.789 42.1374C227.839 38.1481 230.744 34.1096 235.374 34.1096C236.605 34.1096 237.984 34.3559 239.215 35.1439C239.659 35.4394 239.856 35.7841 239.856 36.3751Z" fill="#00A19A"></path>
<path d="M247.883 46.0774C249.065 46.0774 250.198 45.6834 250.986 45.2401C251.38 44.9939 251.774 44.8461 252.217 44.8461C253.005 44.8461 253.695 45.6341 253.695 46.5206C253.695 47.1116 253.301 47.6041 252.759 47.9981C251.577 48.7861 250.099 49.2786 247.637 49.2786C243.697 49.2786 240.545 46.1266 240.496 42.2359C240.496 37.7542 243.697 34.159 247.834 34.159C251.577 34.159 254.286 37.1139 254.286 40.0197C254.286 41.6942 254.039 42.5314 251.774 42.5314C250.001 42.5807 247.834 42.5807 243.992 42.5807C244.091 44.4521 245.716 46.0774 247.883 46.0774ZM243.992 40.3152C245.667 40.3152 249.164 40.2659 250.493 40.1674C250.74 40.1182 250.887 40.0197 250.887 39.8719C250.887 38.0989 249.41 36.9169 247.834 36.9169C245.716 36.9169 244.189 38.6407 243.992 40.3152Z" fill="#00A19A"></path>
</svg>
