<svg width="1901" height="1144" viewBox="0 0 1901 1144" fill="none" xmlns="http://www.w3.org/2000/svg">
<path d="M1378.52 493.799H1184.81C1159.84 493.799 1140.04 473.997 1140.04 449.029C1140.04 424.062 1159.84 404.26 1184.81 404.26H1378.52C1403.49 404.26 1423.29 424.062 1423.29 449.029C1423.29 473.997 1403.49 493.799 1378.52 493.799Z" fill="#00A19A"></path>
<path d="M1428.45 730.559H1234.74C1209.77 730.559 1189.97 710.757 1189.97 685.79C1189.97 660.822 1209.77 641.02 1234.74 641.02H1428.45C1453.42 641.02 1473.22 660.822 1473.22 685.79C1473.22 710.757 1453.42 730.559 1428.45 730.559Z" fill="#00A19A"></path>
<path d="M1327.72 170.944H1161.56C1069.44 170.944 997.981 241.542 980.762 338.828C977.318 356.908 950.628 503.269 936.853 570.423L826.652 239.82C820.626 220.018 801.685 205.382 780.161 205.382C751.75 205.382 734.531 220.018 725.061 250.151C680.292 398.234 650.158 499.825 621.747 576.449C604.528 478.302 567.508 288.033 551.15 203.66C545.984 177.832 533.07 167.5 506.381 167.5C477.108 167.5 456.446 189.024 461.611 217.435C487.44 354.325 515.851 492.938 544.262 627.245C557.176 691.816 563.203 727.115 612.277 728.837C643.271 729.698 661.351 703.008 669.099 678.902C712.147 551.482 746.584 454.195 780.161 343.994C807.712 428.367 852.481 552.343 895.528 678.902C903.276 702.148 914.469 728.837 949.768 728.837C988.51 727.976 995.398 706.452 1003.15 677.18C1003.15 677.18 1062.55 381.876 1068.58 356.047C1078.91 315.583 1096.13 258.76 1163.28 258.76H1329.44C1354.41 258.76 1374.21 238.959 1374.21 213.991C1372.49 190.746 1352.69 170.944 1327.72 170.944Z" fill="#00A19A"></path>
<path d="M1649.72 689.233C1649.72 717.644 1627.33 740.029 1598.92 740.029C1570.51 740.029 1548.13 717.644 1548.13 689.233C1548.13 660.822 1570.51 638.437 1598.92 638.437C1627.33 638.437 1649.72 661.683 1649.72 689.233Z" fill="#00A19A"></path>
<path d="M143.062 895.86C143.062 889.834 150.811 885.529 156.837 885.529C162.864 885.529 166.308 888.112 167.169 893.278C168.89 897.582 179.222 941.491 184.388 959.57C192.136 939.769 199.885 918.245 208.494 894.139C210.216 888.973 215.382 886.39 220.547 886.39C227.435 886.39 231.74 889.834 234.322 895.86L257.568 958.71L270.482 910.497C272.204 903.609 273.926 897.582 275.648 893.278C277.37 888.112 279.953 886.39 285.979 886.39C292.006 886.39 299.754 890.695 299.754 896.721C299.754 897.582 299.754 899.304 298.893 901.026C296.31 909.636 285.979 944.934 279.952 961.292C276.509 970.763 274.787 976.789 273.065 981.094C270.482 987.121 267.038 990.565 258.429 990.565C250.68 990.565 246.376 987.121 243.793 980.233C236.905 965.597 226.574 934.603 220.547 918.245L199.885 973.346C195.58 984.538 192.136 990.565 181.805 990.565C171.473 990.565 168.89 985.399 166.308 978.511C154.254 938.047 146.506 910.497 142.201 897.582C143.062 898.443 143.062 896.721 143.062 895.86Z" fill="#373F4F"></path>
<path d="M366.909 886.39C396.181 890.695 409.095 915.663 409.095 938.908C409.095 969.902 385.85 992.287 353.995 992.287C326.444 992.287 302.338 971.624 302.338 941.491C302.338 907.914 324.722 884.668 360.021 884.668C362.604 885.529 364.326 885.529 366.909 886.39ZM355.717 907.053C338.498 907.914 327.305 920.828 327.305 942.352C327.305 959.571 341.08 970.763 353.995 970.763C370.353 970.763 384.989 957.849 384.989 938.047C384.128 921.689 373.796 907.914 355.717 907.053Z" fill="#373F4F"></path>
<path d="M420.287 896.722C420.287 888.973 424.592 885.529 433.201 885.529C439.228 885.529 443.533 888.973 444.394 895L445.255 902.748C451.281 890.695 465.056 884.668 476.249 884.668C491.746 884.668 502.938 893.278 507.243 904.47C513.269 893.278 526.183 884.668 540.82 884.668C568.37 884.668 579.562 903.609 579.562 928.577V951.822C579.562 961.293 579.562 970.763 578.701 981.094C577.84 988.843 570.953 990.565 565.787 990.565C558.899 990.565 553.734 987.121 553.734 980.233C553.734 968.18 554.595 950.961 554.595 932.02C554.595 917.384 550.29 905.331 536.515 905.331C523.601 905.331 514.13 913.941 513.269 929.438C513.269 938.047 513.269 942.352 513.269 953.544V976.79C513.269 984.538 508.965 989.704 500.355 989.704C493.467 989.704 489.163 986.26 489.163 979.372C489.163 959.571 490.024 952.683 490.024 928.577C489.163 915.663 483.997 904.47 471.083 904.47C453.864 904.47 446.976 918.245 446.976 938.047V980.233C446.976 987.121 440.95 989.704 434.062 989.704C428.036 989.704 422.009 987.121 422.009 979.372C422.009 975.929 422.009 974.207 422.009 967.319L422.87 933.742C421.148 905.331 420.287 901.026 420.287 896.722Z" fill="#373F4F"></path>
<path d="M641.549 970.763C650.158 970.763 657.907 968.18 663.934 964.736C666.516 963.014 669.099 962.153 672.543 962.153C677.709 962.153 682.874 968.18 682.874 974.206C682.874 978.511 680.292 981.955 675.987 984.538C667.377 989.703 657.046 994.008 639.827 994.008C611.416 994.008 589.892 971.623 589.031 944.073C589.031 912.218 611.416 886.39 641.549 886.39C668.238 886.39 687.179 907.053 687.179 927.715C687.179 939.768 685.457 945.795 669.099 945.795C656.185 946.656 640.688 945.795 613.999 946.656C614.86 958.709 626.052 970.763 641.549 970.763ZM613.999 929.437C626.052 929.437 651.019 929.437 660.49 928.576C662.212 928.576 663.073 927.715 663.073 926.854C663.073 914.801 652.741 906.192 641.549 906.192C626.052 905.331 615.721 917.384 613.999 929.437Z" fill="#373F4F"></path>
<path d="M699.233 900.166C699.233 890.695 701.816 885.529 712.147 885.529C719.895 885.529 722.478 888.973 723.339 896.722L724.2 904.47C729.366 892.417 744.002 884.668 757.777 884.668C782.744 884.668 797.38 901.026 797.38 929.438C797.38 938.908 797.38 943.213 797.38 958.71V978.512C797.38 987.982 792.215 991.426 783.605 991.426C776.718 991.426 771.552 987.982 771.552 980.233C771.552 967.319 772.413 950.961 772.413 936.325C772.413 920.828 768.969 906.192 751.75 906.192C728.505 906.192 724.2 923.411 724.2 944.935V980.233C724.2 987.982 717.313 990.565 712.147 990.565C705.259 990.565 700.094 987.982 700.094 979.372C700.094 965.597 700.955 951.822 700.955 919.106L699.233 900.166Z" fill="#373F4F"></path>
<path d="M902.416 970.763C911.025 970.763 918.774 968.18 924.801 964.736C927.383 963.014 929.966 962.153 933.41 962.153C938.576 962.153 943.741 968.18 943.741 974.206C943.741 978.511 941.158 981.955 936.854 984.538C928.244 989.703 917.913 994.008 900.694 994.008C872.283 994.008 850.759 971.623 849.898 944.073C849.898 912.218 872.283 886.39 902.416 886.39C929.105 886.39 948.046 907.053 948.046 927.715C948.046 939.768 946.324 945.795 929.966 945.795C917.052 946.656 901.555 945.795 874.866 946.656C875.727 958.709 886.919 970.763 902.416 970.763ZM874.866 929.437C886.919 929.437 911.886 929.437 921.357 928.576C923.079 928.576 923.94 927.715 923.94 926.854C923.94 914.801 913.608 906.192 902.416 906.192C886.919 905.331 876.588 917.384 874.866 929.437Z" fill="#373F4F"></path>
<path d="M976.458 950.1L986.789 938.047L983.346 933.742C976.458 925.994 965.266 913.94 958.378 905.331C955.795 901.887 954.073 899.304 954.073 895.86C954.073 890.695 960.961 885.529 966.127 885.529C969.571 885.529 973.014 887.251 976.458 890.695C990.233 907.914 996.26 915.662 1001.43 921.689C1006.59 915.662 1014.34 906.192 1024.67 893.278C1029.84 887.251 1032.42 885.529 1036.72 885.529C1042.75 885.529 1049.64 890.695 1049.64 896.721C1049.64 902.748 1043.61 907.053 1036.72 914.801L1016.92 938.047L1045.33 969.902C1047.92 973.346 1050.5 975.928 1050.5 980.233C1050.5 985.399 1044.47 991.425 1037.59 991.425C1032.42 991.425 1029.84 988.843 1026.39 984.538C1021.23 977.65 1007.45 961.292 1002.29 954.405C991.955 966.458 983.346 977.65 978.18 984.538C974.736 989.704 971.292 991.425 966.988 991.425C960.961 991.425 954.073 986.26 954.073 980.233C954.073 976.789 954.934 974.207 957.517 971.624L976.458 950.1Z" fill="#373F4F"></path>
<path d="M1072.02 885.529C1078.05 885.529 1081.49 888.112 1082.35 893.278L1083.21 903.609C1090.1 891.556 1103.02 884.668 1117.65 884.668C1146.92 884.668 1165.87 907.914 1165.87 937.186C1165.87 968.18 1143.48 992.287 1113.35 992.287C1100.43 992.287 1090.1 987.121 1084.08 978.512C1084.08 983.677 1084.08 991.426 1084.08 999.174C1084.08 1006.92 1084.94 1017.25 1084.94 1028.45C1084.94 1036.19 1080.63 1040.5 1071.16 1040.5C1064.27 1040.5 1059.97 1037.06 1059.97 1028.45V939.769V895.861C1059.11 888.973 1064.27 885.529 1072.02 885.529ZM1113.35 907.053C1096.99 907.053 1084.08 919.967 1084.08 939.769C1084.08 959.571 1095.27 971.624 1111.63 971.624C1127.98 971.624 1140.9 957.849 1140.9 938.047C1140.9 919.967 1127.98 907.053 1113.35 907.053Z" fill="#373F4F"></path>
<path d="M1224.41 970.763C1233.02 970.763 1240.77 968.18 1246.8 964.736C1249.38 963.014 1251.96 962.153 1255.4 962.153C1260.57 962.153 1265.74 968.18 1265.74 974.206C1265.74 978.511 1263.15 981.955 1258.85 984.538C1250.24 989.703 1239.91 994.008 1222.69 994.008C1194.28 994.008 1172.75 971.623 1171.89 944.073C1171.89 912.218 1194.28 886.39 1224.41 886.39C1251.1 886.39 1270.04 907.053 1270.04 927.715C1270.04 939.768 1268.32 945.795 1251.96 945.795C1239.05 946.656 1223.55 945.795 1196.86 946.656C1197.72 958.709 1208.91 970.763 1224.41 970.763ZM1196.86 929.437C1208.91 929.437 1233.88 929.437 1243.35 928.576C1245.07 928.576 1245.93 927.715 1245.93 926.854C1245.93 914.801 1235.6 906.192 1224.41 906.192C1208.91 905.331 1198.58 917.384 1196.86 929.437Z" fill="#373F4F"></path>
<path d="M1295.01 886.39C1300.17 886.39 1303.62 888.973 1304.48 894.139L1305.34 906.192C1312.23 891.556 1325.14 884.668 1336.33 884.668C1344.08 884.668 1348.39 888.112 1348.39 896.722C1348.39 902.748 1345.8 908.775 1338.05 908.775H1334.61C1319.97 908.775 1307.06 921.689 1307.06 944.935C1307.06 956.127 1307.92 969.041 1307.06 981.094C1307.06 988.843 1301.89 991.426 1294.15 991.426C1286.4 991.426 1282.09 987.982 1282.09 977.651C1282.09 960.432 1282.95 938.047 1282.95 921.689C1282.95 913.941 1282.95 905.331 1282.95 897.583C1282.09 889.834 1287.26 886.39 1295.01 886.39Z" fill="#373F4F"></path>
<path d="M1365.6 886.39C1373.35 886.39 1378.52 888.973 1378.52 900.165C1378.52 917.384 1378.52 934.603 1378.52 951.822V980.233C1378.52 988.842 1374.21 992.286 1365.6 992.286C1358.72 992.286 1353.55 988.842 1353.55 981.955V898.443C1353.55 888.973 1359.58 886.39 1365.6 886.39Z" fill="#373F4F"></path>
<path d="M1443.95 970.763C1452.56 970.763 1460.31 968.18 1466.34 964.736C1468.92 963.014 1471.5 962.153 1474.95 962.153C1480.11 962.153 1485.28 968.18 1485.28 974.206C1485.28 978.511 1482.69 981.955 1478.39 984.538C1469.78 989.703 1459.45 994.008 1442.23 994.008C1413.82 994.008 1392.3 971.623 1391.43 944.073C1391.43 912.218 1413.82 886.39 1443.95 886.39C1470.64 886.39 1489.58 907.053 1489.58 927.715C1489.58 939.768 1487.86 945.795 1471.5 945.795C1458.59 946.656 1443.09 945.795 1416.4 946.656C1417.26 958.709 1429.32 970.763 1443.95 970.763ZM1417.26 929.437C1429.32 929.437 1454.28 929.437 1463.75 928.576C1465.48 928.576 1466.34 927.715 1466.34 926.854C1466.34 914.801 1456.01 906.192 1444.81 906.192C1429.32 905.331 1418.12 917.384 1417.26 929.437Z" fill="#373F4F"></path>
<path d="M1501.63 900.166C1501.63 890.695 1504.22 885.529 1514.55 885.529C1522.3 885.529 1524.88 888.973 1525.74 896.722L1526.6 904.47C1531.77 892.417 1546.4 884.668 1560.18 884.668C1585.15 884.668 1599.78 901.026 1599.78 929.438C1599.78 938.908 1599.78 943.213 1599.78 958.71V978.512C1599.78 987.982 1594.62 991.426 1586.01 991.426C1579.12 991.426 1573.95 987.982 1573.95 980.233C1573.95 967.319 1574.81 950.961 1574.81 936.325C1574.81 920.828 1571.37 906.192 1554.15 906.192C1530.91 906.192 1526.6 923.411 1526.6 944.935V980.233C1526.6 987.982 1519.71 990.565 1514.55 990.565C1507.66 990.565 1502.49 987.982 1502.49 979.372C1502.49 965.597 1503.36 951.822 1503.36 919.106L1501.63 900.166Z" fill="#373F4F"></path>
<path d="M1695.35 901.887C1695.35 907.053 1691.9 913.94 1685.02 913.94C1681.57 913.94 1677.27 912.218 1675.55 910.497C1672.1 908.775 1667.8 907.914 1662.63 907.914C1645.41 907.914 1634.22 925.994 1634.22 940.63C1634.22 957.849 1645.41 970.763 1661.77 970.763C1669.52 970.763 1674.69 969.041 1678.99 966.458C1681.57 964.736 1685.02 963.014 1688.46 963.014C1694.49 963.014 1698.79 969.902 1698.79 975.067C1698.79 978.511 1697.07 981.094 1694.49 982.816C1687.6 987.982 1678.13 992.286 1662.63 992.286C1627.33 992.286 1610.98 964.736 1610.98 942.352C1610.98 913.94 1631.64 885.529 1664.35 885.529C1672.96 885.529 1683.29 887.251 1691.9 892.417C1693.63 895 1695.35 897.582 1695.35 901.887Z" fill="#373F4F"></path>
<path d="M1752.17 970.763C1760.78 970.763 1768.53 968.18 1774.55 964.736C1777.14 963.014 1779.72 962.153 1783.16 962.153C1788.33 962.153 1793.49 968.18 1793.49 974.206C1793.49 978.511 1790.91 981.955 1786.61 984.538C1778 989.703 1767.67 994.008 1750.45 994.008C1722.04 994.008 1700.51 971.623 1699.65 944.073C1699.65 912.218 1722.04 886.39 1752.17 886.39C1778.86 886.39 1797.8 907.053 1797.8 927.715C1797.8 939.768 1796.08 945.795 1779.72 945.795C1766.8 946.656 1751.31 945.795 1724.62 946.656C1725.48 958.709 1736.67 970.763 1752.17 970.763ZM1724.62 929.437C1736.67 929.437 1761.64 929.437 1771.11 928.576C1772.83 928.576 1773.69 927.715 1773.69 926.854C1773.69 914.801 1763.36 906.192 1752.17 906.192C1736.67 905.331 1725.48 917.384 1724.62 929.437Z" fill="#373F4F"></path>
</svg>
